    <svg viewBox="-12.8 -12.8 153.60 153.60" xmlns="http://www.w3.org/2000/svg" xmlns:xlink="http://www.w3.org/1999/xlink" aria-hidden="true" role="img" class="iconify iconify--noto" preserveAspectRatio="xMidYMid meet" fill="#000000">
      <g id="SVGRepo_bgCarrier" stroke-width="0"></g><g id="SVGRepo_tracerCarrier" stroke-linecap="round" stroke-linejoin="round"></g>
      <g id="SVGRepo_iconCarrier">
        <path class="svg-color-highlight" d="M 85.71 40.2 h -34.88 c -1 -1.6 -1.792 1.792 -1.792 1.792 v 80.768 c 0
		0.992 0.8 1.792 1.792 1.792 h 34.832 c 24.12 0 40.344 -16.952 40.344 -42.184 s -16.224 -42.184 -40.344 -42.184 z
		m -1.032 64.64 c -0.224 0 -0.432 -0.056 -0.632 -0.128 c -0.048 0.008 -0.088 0.024 -0.136 0.024 c -0.064 0.008
		-0.112 0.032 -0.176 0.032 h -11.76 c -0.96 0 -1.728 -0.776 -1.728 -1.728 V 61.64 c 0 -0.952 0.768 -1.728 1.728
		-1.728 h 11.76 c 0.064 0 0.112 0.024 0.176 0.032 c 0.04 0 0.088 0.016 0.136 0.024 c 0.2 -0.072 0.408 -0.128
		0.632 -0.128 c 0.344 0 0.688 0.032 1.032 0.048 c 0.6 0.024 1.2 0.072 1.792 0.144 c 10.488 1.304 17.352 9.912
		17.352 22.272 s -6.864 20.968 -17.352 22.272 c -0.592 0.072 -1.192 0.12 -1.792 0.144 c -0.344 0.024 -0.688 0.056
		-1.032 0.056 z" fill="#8c8781"></path>
        <path class="svg-color-secondary" d="M82.312 79.608H45.792v-65.6c0-0.992-0.8-1.792-1.792-1.792H26.488c-0.992 0-1.792 0.8-1.792 1.792v80.768c0 0.992 0.8 1.792 1.792 1.792h55.832c0.992 0 1.792-0.8 1.792-1.792v-13.376a1.801 1.801 0 0 0-1.8-1.792z"></path>
      </g>
      </svg>
